<?xml version="1.0" encoding="utf-8"?>
<!-- Generator: Adobe Illustrator 17.0.0, SVG Export Plug-In . SVG Version: 6.00 Build 0)  -->
<!DOCTYPE svg PUBLIC "-//W3C//DTD SVG 1.0//EN" "http://www.w3.org/TR/2001/REC-SVG-20010904/DTD/svg10.dtd">
<svg version="1.0" id="Layer_1" xmlns="http://www.w3.org/2000/svg" xmlns:xlink="http://www.w3.org/1999/xlink" x="0px" y="0px"
	 width="753.464px" height="138.858px" viewBox="0 0 753.464 138.858" enable-background="new 0 0 753.464 138.858"
	 xml:space="preserve">
<g>
	<path fill="#EEEEEE" d="M70.708,0c9.592,0,18.828,1.542,27.706,4.622c8.878,3.08,14.848,4.62,17.909,4.62
		c1.218,13.101,2.741,23.792,4.567,32.074l-7.105,1.221c-3.197-10.725-8.216-19.243-15.053-25.555
		c-6.837-6.312-17.161-9.47-30.972-9.47c-14.296,0-26.186,5.703-35.67,17.106S17.865,50.752,17.865,68.807
		c0,7.029,1.253,14.159,3.76,21.388c2.506,7.23,6.046,13.953,10.62,20.17c4.572,6.218,10.534,11.268,17.885,15.153
		c7.35,3.886,15.463,5.828,24.339,5.828c13.075,0,23.135-3.342,30.182-10.028V90.421c0-3.85-1.206-6.331-3.613-7.446
		c-2.409-1.113-6.824-1.941-13.246-2.482c-0.536-0.676-0.803-1.911-0.803-3.705c0-1.792,0.195-3.061,0.588-3.807
		c13.17,0.271,21.838,0.406,26.001,0.406c3.953,0,10.047-0.135,18.287-0.406c0.669,0.677,1.004,1.929,1.004,3.756
		s-0.333,3.08-0.996,3.756c-3.251,0.27-5.624,1.131-7.118,2.584c-1.494,1.452-2.24,3.899-2.24,7.345v23.298
		c0,2.094,1.117,4.02,3.35,5.775c-15.15,12.909-33.874,19.363-56.173,19.363c-20.228,0-36.9-6.395-50.016-19.185
		C6.558,106.884,0,91.321,0,72.981c0-14.683,3.472-27.675,10.416-38.978c6.943-11.3,15.723-19.793,26.34-25.478
		C47.372,2.842,58.69,0,70.708,0z"/>
	<path fill="#EEEEEE" d="M168.396,136.828c-11.194,0.135-20.161,0.27-26.903,0.406c-0.676-0.597-1.012-1.812-1.012-3.644
		c0-1.83,0.334-3.119,1.004-3.868c7.698-0.267,12.602-1.405,14.711-3.413s3.164-7.127,3.164-15.361V28.519
		c0-8.231-1.055-13.335-3.164-15.31s-7.013-3.096-14.711-3.364c-0.669-0.588-1.004-1.803-1.004-3.645s0.336-3.131,1.012-3.867
		c13.82,0.295,22.72,0.442,26.697,0.442c4.477,0,13.501-0.147,27.071-0.442c0.427,0.736,0.641,2.006,0.641,3.811
		s-0.268,3.037-0.802,3.7c-7.699,0.271-12.603,1.405-14.712,3.4c-2.109,1.997-3.163,7.156-3.163,15.479v90.238
		c0,3.181,0.861,5.701,2.584,7.562c1.722,1.862,4.103,2.791,7.143,2.791h15.2c10.131,0,17.714-2.385,22.748-7.155
		c5.032-4.771,8.731-11.453,11.096-20.048c2.368-0.405,4.634-0.066,6.801,1.016c-1.354,11.835-3.146,23.203-5.38,34.105
		c-12.79-0.271-21.046-0.406-24.767-0.406H168.396z"/>
	<path fill="#EEEEEE" d="M279.237,119.836c-0.136,1.333-0.339,2.515-0.609,3.545c-0.271,1.032,0.117,1.898,1.167,2.597
		c1.048,0.699,1.878,1.248,2.487,1.647c0.609,0.399,1.759,0.767,3.451,1.1c1.691,0.333,3.01,0.531,3.959,0.598
		c0.947,0.066,2.266,0.2,3.958,0.399c0.541,0.749,0.812,2.038,0.812,3.868c0,1.832-0.271,3.047-0.812,3.644
		c-10.287-0.3-19.151-0.449-26.594-0.449c-2.098,0-8.29,0.149-18.575,0.449c-0.677-0.597-1.015-1.812-1.015-3.644
		c0-1.83,0.337-3.119,1.015-3.868c5.278-0.402,9.44-1.479,12.485-3.229c3.045-1.75,5.819-5.585,8.323-11.507L316.489,4.162
		c3.045,0,6.867-1.386,11.47-4.162l42.834,118.314c0.812,2.49,1.81,4.493,2.994,6.008c1.184,1.515,2.808,2.643,4.872,3.382
		c2.064,0.74,3.619,1.178,4.67,1.313c1.049,0.136,3.096,0.37,6.141,0.706c0.676,0.749,1.016,2.038,1.016,3.868
		c0,1.832-0.34,3.047-1.016,3.644c-10.287-0.3-18.204-0.449-23.752-0.449c-7.917,0-16.986,0.149-27.203,0.449
		c-0.542-0.597-0.812-1.812-0.812-3.644c0-1.83,0.27-3.119,0.812-3.868c0.812,0,1.878-0.049,3.197-0.148
		c1.32-0.101,2.335-0.185,3.045-0.251s1.624-0.167,2.74-0.3c1.117-0.133,1.945-0.265,2.487-0.398c0.541-0.133,1.183-0.333,1.928-0.6
		c0.744-0.266,1.269-0.599,1.573-0.999c0.305-0.399,0.559-0.882,0.761-1.447c0.203-0.565,0.27-1.181,0.203-1.847
		c-0.068-0.666-0.238-1.466-0.507-2.397l-12.079-34.649h-43.85c-2.504,0-4.212,0.25-5.126,0.748c-0.914,0.5-1.642,1.415-2.183,2.747
		L279.237,119.836z M301.771,77.956h36.745l-19.489-56.539h-1.319l-21.214,53.797c-0.203,0.406-0.271,0.779-0.203,1.116
		c0.066,0.34,0.203,0.609,0.406,0.812c0.203,0.203,0.541,0.373,1.015,0.508c0.473,0.136,1.031,0.221,1.675,0.254
		C300.028,77.94,300.823,77.956,301.771,77.956z"/>
	<path fill="#EEEEEE" d="M430.987,111.133c0,8.151,1.07,13.206,3.213,15.16c2.142,1.955,7.029,3.099,14.661,3.429
		c0.534,0.914,0.803,2.259,0.803,4.035s-0.218,2.936-0.65,3.477c-13.903-0.271-22.856-0.406-26.855-0.406
		c-4.451,0-13.42,0.135-26.903,0.406c-0.676-0.541-1.013-1.7-1.013-3.477s0.335-3.121,1.004-4.035
		c7.699-0.267,12.603-1.405,14.712-3.416c2.109-2.01,3.164-7.134,3.164-15.375V28.429c0-8.241-1.055-13.349-3.164-15.325
		c-2.109-1.977-7.013-3.096-14.712-3.359c-0.669-0.542-1.004-1.719-1.004-3.53c0-1.812,0.337-3.104,1.013-3.879
		c13.82,0.271,22.719,0.406,26.696,0.406c2.917,0,7.598-0.236,14.043-0.71c6.443-0.473,10.447-0.71,12.008-0.71
		c7.945,0,14.678,0.631,20.195,1.892c5.517,1.262,10.409,3.971,14.679,8.13c7.159,6.953,10.739,15.679,10.739,26.177
		c0,9.525-2.866,17.294-8.598,23.305c-5.732,6.013-11.657,10.065-17.774,12.158l26.151,43.498c3.18,5.261,6.225,9.24,9.136,11.938
		c2.908,2.697,6.496,4.046,10.759,4.046c0.947,1.826,1.016,3.485,0.203,4.974c-1.963,0.946-4.872,1.421-8.729,1.421
		c-10.692,0-19.828-6.325-27.406-18.977l-22.064-35.39c-1.688-2.718-4.151-4.688-7.392-5.915c-3.242-1.226-8.879-1.84-16.913-1.84
		V111.133z M448.203,8.831c-11.478,0-17.216,4.396-17.216,13.186v47.209h9.925c11.207,0,19.815-2.265,25.825-6.794
		c6.008-4.53,9.013-12.766,9.013-24.711C475.75,18.461,466.567,8.831,448.203,8.831z"/>
	<path fill="#EEEEEE" d="M651.961,68.371c0,17.336-4.298,32.097-12.891,44.283c-5.82,8.33-13.246,14.778-22.28,19.35
		c-9.034,4.57-19.202,6.854-30.502,6.854c-18.271,0-33.684-6.097-46.235-18.29c-12.553-12.193-18.829-28.283-18.829-48.267
		c0-18.32,4.736-33.971,14.211-46.95c5.819-7.976,13.009-14.195,21.569-18.658C565.563,2.231,574.92,0,585.07,0
		c19.285,0,35.255,6.171,47.909,18.513C645.633,30.855,651.961,47.474,651.961,68.371z M582.329,7.511
		c-5.008,0-9.863,1.21-14.565,3.627c-4.704,2.418-9.068,5.962-13.094,10.631c-4.027,4.669-7.293,11.101-9.796,19.295
		c-2.504,8.196-3.755,17.432-3.755,27.709c0,19.01,4.854,34.192,14.565,45.544c9.71,11.353,21.299,17.028,34.766,17.028
		c12.18,0,22.144-5.34,29.893-16.02c7.747-10.681,11.622-25.022,11.622-43.026c0-20.218-4.704-36.072-14.109-47.56
		C608.449,13.255,596.606,7.511,582.329,7.511z"/>
	<path fill="#EEEEEE" d="M742.908,6.009c1.894,9.535,3.146,18.459,3.755,26.775c-1.015,0.742-3.282,1.146-6.801,1.213
		c-0.679-2.157-1.338-4.093-1.982-5.813c-0.644-1.718-1.439-3.521-2.388-5.408c-0.949-1.887-1.983-3.539-3.101-4.953
		c-1.12-1.415-2.459-2.798-4.017-4.146c-1.559-1.348-3.253-2.459-5.083-3.335s-3.947-1.567-6.354-2.073
		c-2.405-0.504-5.032-0.758-7.877-0.758c-6.012,0-11.296,2.393-15.854,7.178c-4.558,4.785-6.837,10.109-6.837,15.971
		c0,3.235,0.742,6.286,2.229,9.15c1.484,2.864,3.24,5.257,5.267,7.178c2.025,1.92,4.676,3.824,7.951,5.711
		c3.275,1.888,6.026,3.285,8.257,4.195c2.229,0.91,4.997,2.004,8.306,3.284c3.309,1.282,5.401,2.091,6.28,2.427
		c4.051,1.752,7.678,3.623,10.882,5.611c3.202,1.989,6.232,4.414,9.091,7.278c2.858,2.865,5.044,6.252,6.56,10.161
		c1.515,3.907,2.272,8.222,2.272,12.938c0,6.56-1.772,12.847-5.319,18.863c-3.546,6.018-8.318,10.887-14.319,14.605
		c-7.365,4.53-15.992,6.795-25.879,6.795c-6.818,0-13.97-0.808-21.456-2.417c-7.485-1.611-13.267-2.419-17.343-2.419
		c-2.013-8.707-3.343-19.202-3.991-31.487c2.164-1.145,4.431-1.346,6.801-0.605c4.481,19.612,17.053,29.417,37.712,29.417
		c8.306,0,14.703-2.173,19.195-6.52c4.489-4.346,6.735-10.664,6.735-18.954c0-3.773-0.592-7.228-1.773-10.361
		c-1.182-3.135-2.531-5.661-4.051-7.582c-1.519-1.92-3.681-3.774-6.483-5.56c-2.804-1.786-5.134-3.084-6.989-3.893
		c-1.857-0.809-4.491-1.87-7.901-3.185c-3.41-1.313-5.753-2.241-7.027-2.78c-6.305-2.626-11.581-5.374-15.83-8.238
		c-4.251-2.864-7.916-6.721-10.996-11.575c-3.081-4.853-4.621-10.312-4.621-16.377c0-10.777,4.018-19.525,12.054-26.244
		S699.685,0,710.985,0c7.93,0,14.757,0.931,20.484,2.79C737.196,4.65,741.01,5.724,742.908,6.009z"/>
</g>
</svg>
